<mxfile host="app.diagrams.net" agent="Mozilla/5.0 (Windows NT 10.0; Win64; x64) AppleWebKit/537.36 (KHTML, like Gecko) Chrome/135.0.0.0 Safari/537.36 Edg/135.0.0.0" version="26.2.14">
  <diagram id="C5RBs43oDa-KdzZeNtuy" name="Page-1">
    <mxGraphModel dx="1371" dy="788" grid="1" gridSize="10" guides="1" tooltips="1" connect="1" arrows="1" fold="1" page="1" pageScale="1" pageWidth="827" pageHeight="1169" math="0" shadow="0">
      <root>
        <mxCell id="WIyWlLk6GJQsqaUBKTNV-0" />
        <mxCell id="WIyWlLk6GJQsqaUBKTNV-1" parent="WIyWlLk6GJQsqaUBKTNV-0" />
        <mxCell id="r6KssmqSpB2ZVI72cJjy-11" value="" style="edgeStyle=orthogonalEdgeStyle;rounded=0;orthogonalLoop=1;jettySize=auto;html=1;" edge="1" parent="WIyWlLk6GJQsqaUBKTNV-1" source="WIyWlLk6GJQsqaUBKTNV-3" target="r6KssmqSpB2ZVI72cJjy-4">
          <mxGeometry relative="1" as="geometry" />
        </mxCell>
        <mxCell id="WIyWlLk6GJQsqaUBKTNV-3" value="Value Evaluate(const SheetInterface&amp;amp; sheet)" style="rounded=1;whiteSpace=wrap;html=1;fontSize=12;glass=0;strokeWidth=1;shadow=0;" parent="WIyWlLk6GJQsqaUBKTNV-1" vertex="1">
          <mxGeometry x="156.25" y="30" width="250" height="40" as="geometry" />
        </mxCell>
        <mxCell id="r6KssmqSpB2ZVI72cJjy-20" value="" style="edgeStyle=orthogonalEdgeStyle;rounded=0;orthogonalLoop=1;jettySize=auto;html=1;" edge="1" parent="WIyWlLk6GJQsqaUBKTNV-1" source="WIyWlLk6GJQsqaUBKTNV-6" target="r6KssmqSpB2ZVI72cJjy-19">
          <mxGeometry relative="1" as="geometry" />
        </mxCell>
        <mxCell id="r6KssmqSpB2ZVI72cJjy-28" value="Умножение" style="edgeLabel;html=1;align=center;verticalAlign=middle;resizable=0;points=[];" vertex="1" connectable="0" parent="r6KssmqSpB2ZVI72cJjy-20">
          <mxGeometry x="-0.3787" y="-1" relative="1" as="geometry">
            <mxPoint x="-2" y="-19" as="offset" />
          </mxGeometry>
        </mxCell>
        <mxCell id="r6KssmqSpB2ZVI72cJjy-22" value="" style="edgeStyle=orthogonalEdgeStyle;rounded=0;orthogonalLoop=1;jettySize=auto;html=1;" edge="1" parent="WIyWlLk6GJQsqaUBKTNV-1" source="WIyWlLk6GJQsqaUBKTNV-6" target="r6KssmqSpB2ZVI72cJjy-21">
          <mxGeometry relative="1" as="geometry" />
        </mxCell>
        <mxCell id="r6KssmqSpB2ZVI72cJjy-29" value="Сложение" style="edgeLabel;html=1;align=center;verticalAlign=middle;resizable=0;points=[];" vertex="1" connectable="0" parent="r6KssmqSpB2ZVI72cJjy-22">
          <mxGeometry x="0.0862" y="-4" relative="1" as="geometry">
            <mxPoint y="-11" as="offset" />
          </mxGeometry>
        </mxCell>
        <mxCell id="r6KssmqSpB2ZVI72cJjy-24" value="" style="edgeStyle=orthogonalEdgeStyle;rounded=0;orthogonalLoop=1;jettySize=auto;html=1;" edge="1" parent="WIyWlLk6GJQsqaUBKTNV-1" source="WIyWlLk6GJQsqaUBKTNV-6" target="r6KssmqSpB2ZVI72cJjy-23">
          <mxGeometry relative="1" as="geometry" />
        </mxCell>
        <mxCell id="r6KssmqSpB2ZVI72cJjy-30" value="Вычитание" style="edgeLabel;html=1;align=center;verticalAlign=middle;resizable=0;points=[];" vertex="1" connectable="0" parent="r6KssmqSpB2ZVI72cJjy-24">
          <mxGeometry x="0.1217" y="-2" relative="1" as="geometry">
            <mxPoint y="-17" as="offset" />
          </mxGeometry>
        </mxCell>
        <mxCell id="WIyWlLk6GJQsqaUBKTNV-6" value="Тип операции" style="rhombus;whiteSpace=wrap;html=1;shadow=0;fontFamily=Helvetica;fontSize=12;align=center;strokeWidth=1;spacing=6;spacingTop=-4;" parent="WIyWlLk6GJQsqaUBKTNV-1" vertex="1">
          <mxGeometry x="225" y="240" width="112.5" height="60" as="geometry" />
        </mxCell>
        <mxCell id="r6KssmqSpB2ZVI72cJjy-17" value="" style="edgeStyle=orthogonalEdgeStyle;rounded=0;orthogonalLoop=1;jettySize=auto;html=1;" edge="1" parent="WIyWlLk6GJQsqaUBKTNV-1" source="r6KssmqSpB2ZVI72cJjy-0" target="r6KssmqSpB2ZVI72cJjy-1">
          <mxGeometry relative="1" as="geometry" />
        </mxCell>
        <mxCell id="r6KssmqSpB2ZVI72cJjy-27" value="" style="edgeStyle=orthogonalEdgeStyle;rounded=0;orthogonalLoop=1;jettySize=auto;html=1;" edge="1" parent="WIyWlLk6GJQsqaUBKTNV-1" source="r6KssmqSpB2ZVI72cJjy-0" target="r6KssmqSpB2ZVI72cJjy-25">
          <mxGeometry relative="1" as="geometry" />
        </mxCell>
        <mxCell id="r6KssmqSpB2ZVI72cJjy-0" value="Проверка деления на ноль" style="rhombus;whiteSpace=wrap;html=1;" vertex="1" parent="WIyWlLk6GJQsqaUBKTNV-1">
          <mxGeometry x="406.25" y="210" width="180" height="120" as="geometry" />
        </mxCell>
        <mxCell id="r6KssmqSpB2ZVI72cJjy-1" value="#ARITM!" style="rounded=1;whiteSpace=wrap;html=1;" vertex="1" parent="WIyWlLk6GJQsqaUBKTNV-1">
          <mxGeometry x="436.25" y="70" width="120" height="60" as="geometry" />
        </mxCell>
        <mxCell id="r6KssmqSpB2ZVI72cJjy-3" value="" style="endArrow=classic;html=1;rounded=0;entryX=0;entryY=0.5;entryDx=0;entryDy=0;exitX=1;exitY=0.5;exitDx=0;exitDy=0;" edge="1" parent="WIyWlLk6GJQsqaUBKTNV-1" source="WIyWlLk6GJQsqaUBKTNV-6" target="r6KssmqSpB2ZVI72cJjy-0">
          <mxGeometry width="50" height="50" relative="1" as="geometry">
            <mxPoint x="382.5" y="490" as="sourcePoint" />
            <mxPoint x="432.5" y="440" as="targetPoint" />
          </mxGeometry>
        </mxCell>
        <mxCell id="r6KssmqSpB2ZVI72cJjy-18" value="Деление" style="edgeLabel;html=1;align=center;verticalAlign=middle;resizable=0;points=[];" vertex="1" connectable="0" parent="r6KssmqSpB2ZVI72cJjy-3">
          <mxGeometry x="-0.2582" y="-1" relative="1" as="geometry">
            <mxPoint x="1" y="-21" as="offset" />
          </mxGeometry>
        </mxCell>
        <mxCell id="r6KssmqSpB2ZVI72cJjy-13" value="" style="edgeStyle=orthogonalEdgeStyle;rounded=0;orthogonalLoop=1;jettySize=auto;html=1;" edge="1" parent="WIyWlLk6GJQsqaUBKTNV-1" source="r6KssmqSpB2ZVI72cJjy-4" target="r6KssmqSpB2ZVI72cJjy-5">
          <mxGeometry relative="1" as="geometry" />
        </mxCell>
        <mxCell id="r6KssmqSpB2ZVI72cJjy-4" value="Взять значение первой ячейки" style="rounded=0;whiteSpace=wrap;html=1;" vertex="1" parent="WIyWlLk6GJQsqaUBKTNV-1">
          <mxGeometry x="221.25" y="100" width="120" height="40" as="geometry" />
        </mxCell>
        <mxCell id="r6KssmqSpB2ZVI72cJjy-16" value="" style="edgeStyle=orthogonalEdgeStyle;rounded=0;orthogonalLoop=1;jettySize=auto;html=1;" edge="1" parent="WIyWlLk6GJQsqaUBKTNV-1" source="r6KssmqSpB2ZVI72cJjy-5" target="WIyWlLk6GJQsqaUBKTNV-6">
          <mxGeometry relative="1" as="geometry" />
        </mxCell>
        <mxCell id="r6KssmqSpB2ZVI72cJjy-5" value="Взять значение второй ячейки" style="rounded=0;whiteSpace=wrap;html=1;" vertex="1" parent="WIyWlLk6GJQsqaUBKTNV-1">
          <mxGeometry x="221.25" y="170" width="120" height="40" as="geometry" />
        </mxCell>
        <mxCell id="r6KssmqSpB2ZVI72cJjy-43" style="edgeStyle=orthogonalEdgeStyle;rounded=0;orthogonalLoop=1;jettySize=auto;html=1;" edge="1" parent="WIyWlLk6GJQsqaUBKTNV-1" source="r6KssmqSpB2ZVI72cJjy-19">
          <mxGeometry relative="1" as="geometry">
            <mxPoint x="90" y="480" as="targetPoint" />
          </mxGeometry>
        </mxCell>
        <mxCell id="r6KssmqSpB2ZVI72cJjy-19" value="Вычислить результат умножения" style="rounded=0;whiteSpace=wrap;html=1;" vertex="1" parent="WIyWlLk6GJQsqaUBKTNV-1">
          <mxGeometry x="30" y="370" width="120" height="60" as="geometry" />
        </mxCell>
        <mxCell id="r6KssmqSpB2ZVI72cJjy-44" style="edgeStyle=orthogonalEdgeStyle;rounded=0;orthogonalLoop=1;jettySize=auto;html=1;" edge="1" parent="WIyWlLk6GJQsqaUBKTNV-1" source="r6KssmqSpB2ZVI72cJjy-21">
          <mxGeometry relative="1" as="geometry">
            <mxPoint x="220" y="480" as="targetPoint" />
          </mxGeometry>
        </mxCell>
        <mxCell id="r6KssmqSpB2ZVI72cJjy-21" value="Вычислить результат сложения" style="rounded=0;whiteSpace=wrap;html=1;" vertex="1" parent="WIyWlLk6GJQsqaUBKTNV-1">
          <mxGeometry x="160" y="370" width="120" height="60" as="geometry" />
        </mxCell>
        <mxCell id="r6KssmqSpB2ZVI72cJjy-45" style="edgeStyle=orthogonalEdgeStyle;rounded=0;orthogonalLoop=1;jettySize=auto;html=1;" edge="1" parent="WIyWlLk6GJQsqaUBKTNV-1" source="r6KssmqSpB2ZVI72cJjy-23">
          <mxGeometry relative="1" as="geometry">
            <mxPoint x="346.25" y="480" as="targetPoint" />
          </mxGeometry>
        </mxCell>
        <mxCell id="r6KssmqSpB2ZVI72cJjy-23" value="Вычислить результат вычитания" style="rounded=0;whiteSpace=wrap;html=1;" vertex="1" parent="WIyWlLk6GJQsqaUBKTNV-1">
          <mxGeometry x="286.25" y="370" width="120" height="60" as="geometry" />
        </mxCell>
        <mxCell id="r6KssmqSpB2ZVI72cJjy-46" style="edgeStyle=orthogonalEdgeStyle;rounded=0;orthogonalLoop=1;jettySize=auto;html=1;" edge="1" parent="WIyWlLk6GJQsqaUBKTNV-1" source="r6KssmqSpB2ZVI72cJjy-25">
          <mxGeometry relative="1" as="geometry">
            <mxPoint x="496.25" y="480" as="targetPoint" />
          </mxGeometry>
        </mxCell>
        <mxCell id="r6KssmqSpB2ZVI72cJjy-25" value="Вычислить результат деления" style="rounded=0;whiteSpace=wrap;html=1;" vertex="1" parent="WIyWlLk6GJQsqaUBKTNV-1">
          <mxGeometry x="436.25" y="370" width="120" height="60" as="geometry" />
        </mxCell>
        <mxCell id="r6KssmqSpB2ZVI72cJjy-32" value="Вернуть результат" style="rounded=1;whiteSpace=wrap;html=1;" vertex="1" parent="WIyWlLk6GJQsqaUBKTNV-1">
          <mxGeometry x="221.25" y="510" width="120" height="60" as="geometry" />
        </mxCell>
        <mxCell id="r6KssmqSpB2ZVI72cJjy-39" value="" style="endArrow=none;html=1;rounded=0;" edge="1" parent="WIyWlLk6GJQsqaUBKTNV-1">
          <mxGeometry width="50" height="50" relative="1" as="geometry">
            <mxPoint x="80" y="480" as="sourcePoint" />
            <mxPoint x="520" y="480" as="targetPoint" />
          </mxGeometry>
        </mxCell>
        <mxCell id="r6KssmqSpB2ZVI72cJjy-41" value="" style="endArrow=classic;html=1;rounded=0;entryX=0.5;entryY=0;entryDx=0;entryDy=0;" edge="1" parent="WIyWlLk6GJQsqaUBKTNV-1" target="r6KssmqSpB2ZVI72cJjy-32">
          <mxGeometry width="50" height="50" relative="1" as="geometry">
            <mxPoint x="280" y="480" as="sourcePoint" />
            <mxPoint x="440" y="380" as="targetPoint" />
          </mxGeometry>
        </mxCell>
      </root>
    </mxGraphModel>
  </diagram>
</mxfile>
